# xmcd
#
# Track frame offsets: 
#        150
#        11287
#        22822
#        33329
#        46766
#        58085
#        69765
#        80669
#        92152
#        104083
#        115644
#        124504
#        134140
#        147489
#        158454
#        170055
#        178541
#        189977
#        199951
#        211609
#
# Disc length: 3036 seconds
#
# Revision: 0
# Processed by: cddbd v1.5.2PL0 Copyright (c) Steve Scherf et al.
# Submitted via: ExactAudioCopy v0.99pb5
#
DISCID=0a0bda14
DTITLE=Various Artist - Country and Western Hits And Rarities CD04
DYEAR=1900
DGENRE=
TTITLE0=Johnny Horton - The Battle Of New Orleans
TTITLE1=Johnny Cash - Big River
TTITLE2=Hank Snow - Spanish Fireball
TTITLE3=Kitty Wells, Red Foleys - One By One
TTITLE4=Marty Robbins - A White Sport Coat
TTITLE5=Bill Carlisle - No Help Wanted
TTITLE6=Bobby Bare - The Livin' End
TTITLE7=Tommy Collins - You Better Not Do That
TTITLE8=Don Gibson - Give Myself A Party
TTITLE9=Jim Reeves - Yonder Comes A Sucker
TTITLE10=Marvin Rainwater - So You Think You've Got Troubles
TTITLE11=Bob Luman - Baby Walks All Over Me
TTITLE12=Hank Williams - Jambalya
TTITLE13=George 'Thumper' Jones - Who Shot Sam
TTITLE14=Carl Smith - Hey Joe
TTITLE15=Johnny Cash - Guess Things Happens That Way
TTITLE16=Webb Pierce, Red Sovine - Why Baby Why
TTITLE17=Johnny Horton - Honky Tonk Man
TTITLE18=Marty Robbins - The Story Of My Life
TTITLE19=The Everly Brothers - I'm Here To Get My Baby Out Of Jail
EXTD=
EXTT0=
EXTT1=
EXTT2=
EXTT3=
EXTT4=
EXTT5=
EXTT6=
EXTT7=
EXTT8=
EXTT9=
EXTT10=
EXTT11=
EXTT12=
EXTT13=
EXTT14=
EXTT15=
EXTT16=
EXTT17=
EXTT18=
EXTT19=
PLAYORDER=
